<?xml version="1.0" encoding="UTF-8" standalone="no"?>
<!DOCTYPE svg PUBLIC "-//W3C//DTD SVG 1.1//EN" "http://www.w3.org/Graphics/SVG/1.1/DTD/svg11.dtd">
<svg width="100%" height="100%" viewBox="0 0 16 16" version="1.1" xmlns="http://www.w3.org/2000/svg" xmlns:xlink="http://www.w3.org/1999/xlink" xml:space="preserve" xmlns:serif="http://www.serif.com/" style="fill-rule:evenodd;clip-rule:evenodd;stroke-linecap:round;">
    <path d="M7,1L7,4.133L5.555,3.168L4.445,4.832L7.445,6.832C7.78,7.056 8.22,7.056 8.555,6.832L11.555,4.832L10.445,3.168L9,4.133L9,1L7,1ZM5.5,9C4.677,9 4,9.677 4,10.5L4,12L2,12L2,14L14,14L14,12L12,12L12,10.5C12,9.677 11.323,9 10.5,9L5.5,9Z" style="fill:rgb(142,239,151);fill-rule:nonzero;"/>
    <g transform="matrix(0.0202344,0,0,0.0193353,-0.697916,2.39854)">
        <path d="M320.322,195.339C274.841,213.513 252.1,222.599 249.356,241.441C246.612,260.283 265.682,276.401 303.823,308.638L313.69,316.978C324.528,326.139 329.947,330.719 333.054,336.963C336.16,343.207 336.603,350.403 337.487,364.803L338.293,377.91C341.403,428.58 342.96,453.913 359.427,462.647C375.893,471.38 396.363,457.73 437.303,430.43L447.893,423.367C459.527,415.61 465.343,411.73 471.997,410.667C478.65,409.6 485.387,411.467 498.857,415.2L511.12,418.6C558.527,431.74 582.23,438.31 595.15,424.867C608.07,411.423 601.65,386.87 588.813,337.76M599.967,261.174C626.15,218.628 639.243,197.354 630.763,180.312C622.283,163.269 597.847,161.743 548.97,158.692L536.327,157.903C522.437,157.036 515.493,156.602 509.463,153.403C503.43,150.203 498.993,144.6 490.123,133.394L482.047,123.191C450.823,83.755 435.213,64.037 417.05,66.948C398.89,69.859 390.207,93.471 372.837,140.694" style="fill:none;fill-rule:nonzero;stroke:rgb(255,240,84);stroke-width:50px;"/>
    </g>
    <g transform="matrix(0.0202344,0,0,0.0193353,-0.697916,2.39854)">
        <path d="M248.215,241.374C170.381,298.305 110.79,407.193 141.615,600.013C168.9,519.64 251.149,455.263 343.027,424.277" style="fill:none;fill-rule:nonzero;stroke:rgb(255,240,84);stroke-width:50px;stroke-linejoin:round;"/>
    </g>
</svg>
